<svg width="27" height="37" viewBox="0 0 27 37" fill="none" xmlns="http://www.w3.org/2000/svg">
<path d="M13.5011 0C-16.8764 0 13.5011 37 13.5011 37C13.5011 37 43.8736 0 13.5011 0ZM13.5011 23.4042C7.83064 23.4042 3.23697 18.7523 3.23697 13.0212C3.23697 7.29007 7.83064 2.63822 13.5011 2.63822C19.1716 2.63822 23.7652 7.29007 23.7652 13.0212C23.7652 18.7523 19.1666 23.4042 13.5011 23.4042Z" fill="#A2EBFF"/>
<path d="M13.5 4C8.79989 4 5 8.02843 5 13C5 17.9716 8.80463 22 13.5 22C18.1954 22 22 17.9666 22 13C22 8.03344 18.1906 4 13.5 4ZM13.5 20.5502C9.56271 20.5502 6.36455 17.1689 6.36455 13C6.36455 8.8311 9.55797 5.44983 13.5 5.44983C17.442 5.44983 20.6355 8.8311 20.6355 13C20.6355 17.1689 17.442 20.5502 13.5 20.5502Z" fill="#A2EBFF"/>
</svg>
