<svg width="60" height="62" viewBox="0 0 60 62" fill="none" xmlns="http://www.w3.org/2000/svg">
<path d="M41.8437 61.9945C39.3579 61.9945 37.0637 60.6988 35.8179 58.5926L23.1181 37.1338C22.2388 35.6452 20.6154 34.7189 18.8567 34.7024L9.18947 34.6141C6.78254 34.5921 4.40942 34.0407 2.24488 32.9932L0.841301 32.315C-0.280432 31.7747 -0.280432 30.2088 0.841301 29.6685L2.24488 28.9903C4.40379 27.9482 6.7769 27.3914 9.18383 27.3693L18.851 27.2811C20.6097 27.2646 22.2331 26.3438 23.1125 24.8496L35.8179 3.40187C37.0637 1.29569 39.3579 -1.72039e-06 41.8437 -1.82905e-06C36.6691 9.33997 33.7154 21.0012 32.6331 25.8696C32.4866 26.5368 33.0051 27.1598 33.7041 27.1543L34.2283 25.1639C34.482 24.1935 35.4628 23.5815 36.4718 23.7579L39.1831 24.2376C39.5495 24.3038 39.8821 24.4857 40.1301 24.7559C40.3894 25.0371 40.7389 25.2245 41.1222 25.2797L42.103 25.4285L41.0095 25.616C40.6713 25.6767 40.3556 25.831 40.1132 26.0736L39.7017 26.4761L39.0309 27.1102L41.0827 27.0936C42.4018 27.0826 43.7151 27.2315 44.9891 27.5458L51.4151 29.1116L53.9911 22.3244C54.5435 20.8688 56.0486 19.9811 57.6213 20.1741L60 20.4663L56.2515 30.286L58.044 30.7216C58.3371 30.7932 58.3371 31.2012 58.044 31.2729L56.2515 31.7085L60 41.5281L57.6043 41.8259C56.0429 42.0189 54.5435 41.1422 53.9855 39.6976L51.3474 32.9049L44.9891 34.4542C43.7095 34.7685 42.3961 34.9174 41.0827 34.9064L39.0309 34.8898L39.7017 35.5239L40.1132 35.9264C40.3556 36.1635 40.6713 36.3233 41.0095 36.384L42.103 36.5715L41.1222 36.7203C40.7389 36.7755 40.3894 36.9629 40.1301 37.2441C39.8821 37.5143 39.5495 37.6962 39.1831 37.7624L36.4718 38.2421C35.4628 38.4185 34.4876 37.8065 34.2283 36.8361L33.7041 34.8457C33.0108 34.8402 32.4866 35.4632 32.6331 36.1304C33.7154 40.9988 36.6635 52.6655 41.8437 62L41.8437 61.9945Z" fill="#A2EBFF"/>
</svg>
